<svg xmlns="http://www.w3.org/2000/svg" width="274.941" height="58.052" viewBox="0 0 274.941 58.052">
  <g id="Group_6" data-name="Group 6" transform="translate(-283.27 -7688.877)">
    <g id="Group_1" data-name="Group 1" transform="translate(283.27 7688.877)">
      <path id="Path_1" data-name="Path 1" d="M311.324,7688.878h30.042c0,.081.007.162.007.242q0,14.369,0,28.738a29.79,29.79,0,0,1-.264,3.985,28.574,28.574,0,0,1-1.318,5.551,29.075,29.075,0,0,1-14.867,16.69,28.575,28.575,0,0,1-10.892,2.809,1.294,1.294,0,0,0-.19.036h-2.916a1.949,1.949,0,0,0-.217-.034,27.952,27.952,0,0,1-3.462-.4,28.5,28.5,0,0,1-8.027-2.683,29.059,29.059,0,0,1-14.781-17.882,28.069,28.069,0,0,1-1.046-5.965c-.033-.507-.056-1.014-.087-1.521a.717.717,0,0,0-.038-.143v-.751a1.953,1.953,0,0,0,.039-.211c.074-.961.123-1.924.222-2.882a26.059,26.059,0,0,1,.96-4.729,29,29,0,0,1,26.618-20.815A1.7,1.7,0,0,0,311.324,7688.878Zm-17.762,47.934c-.007-.011,0,0,.008.014a.633.633,0,0,0,.045.048,25.552,25.552,0,0,0,12.118,6.652,32.335,32.335,0,0,0,6.006.812,25.79,25.79,0,0,0,5.871-.361,26.373,26.373,0,0,0,7.089-2.4c.055-.028.106-.066.175-.109l-10.428-10.432,6.78-6.722-1.966-2.025a2.072,2.072,0,0,1-2.788-.446,2.03,2.03,0,0,1,2.721-2.931,1.968,1.968,0,0,1,.835,1.1,2.03,2.03,0,0,1-.232,1.711l2.509,2.6-6.712,6.705,10.054,10.054a29.667,29.667,0,0,0,10.83-10.4l-18.391-18.409-8.489,8.46,2.805,2.805a2.037,2.037,0,1,1-.09,3.414,1.951,1.951,0,0,1-.8-1.128,2.019,2.019,0,0,1,.269-1.681L309,7721.354l-8.864,8.835,2.761,2.792a2.062,2.062,0,0,1,2.757.4,2.03,2.03,0,0,1-2.6,3.026,1.966,1.966,0,0,1-.887-1.063,2.032,2.032,0,0,1,.193-1.8l-2.764-2.763Zm47.291-47.384-11.169,11.116,2.881,2.881a2.035,2.035,0,1,1,.039,3.472,1.97,1.97,0,0,1-.866-1.054,2.028,2.028,0,0,1,.209-1.813l-2.812-2.812-4.194,4.182,6.586,6.586a2.071,2.071,0,0,1,2.283.04l1.813-1.813c.606-.606,1.212-1.213,1.825-1.825l3.2,3.2C340.792,7710.881,340.979,7690.345,340.853,7689.428Zm-22.217,22.255,18.261,18.261c.023-.039.062-.1.1-.163a27.242,27.242,0,0,0,3.283-9.637.358.358,0,0,0-.119-.346q-1.184-1.175-2.361-2.356c-.051-.051-.105-.1-.167-.158l-4.182,4.182-12.294-12.294Zm14.865,8.664,4.143-4.143.691.691.672.671c.229.229.457.459.687.687s.447.455.72.712c.025-.359.056-.658.066-.958.059-1.706.112-3.413.174-5.12a.446.446,0,0,0-.148-.366q-1.45-1.44-2.891-2.887c-.051-.05-.1-.1-.144-.135l-3.112,3.113a1.994,1.994,0,0,1,.288,1.371,1.953,1.953,0,0,1-.7,1.264,2.023,2.023,0,0,1-2.443.131,1.963,1.963,0,0,1-.787-1.036,2.046,2.046,0,0,1,.208-1.752L324.336,7706l-2.589,2.589Z" transform="translate(-283.27 -7688.878)" fill="#7ab62e"/>
      <path id="Path_2" data-name="Path 2" d="M486.381,8023.03l4.768,4.768a2.039,2.039,0,0,1,1.718-.243,1.975,1.975,0,0,1,1.106.832,2.03,2.03,0,0,1-2.92,2.732,2.05,2.05,0,0,1-.495-2.731l-4.78-4.78a2.03,2.03,0,0,1-1.764.191,1.978,1.978,0,0,1-1.071-.877,2.032,2.032,0,1,1,3.438.108Z" transform="translate(-459.158 -7980.846)" fill="#7ab62e"/>
      <path id="Path_3" data-name="Path 3" d="M589.364,8044.563a2.03,2.03,0,0,1-.01,4.061,2.03,2.03,0,1,1,.01-4.061Z" transform="translate(-551.488 -8002.64)" fill="#7ab62e"/>
    </g>
    <g id="Group_5" data-name="Group 5" transform="translate(356.647 7688.877)">
      <g id="Group_3" data-name="Group 3" transform="translate(0 0)">
        <g id="Group_2" data-name="Group 2" transform="translate(79.705)">
          <path id="Path_4" data-name="Path 4" d="M1587.722,7752.158l9-8.417-7.094.786Z" transform="translate(-1587.053 -7737.274)" fill="#7ab62e"/>
          <path id="Path_5" data-name="Path 5" d="M1584.623,7696.129l-2.574-7.252.669,14.884Z" transform="translate(-1582.049 -7688.877)" fill="#8ed336"/>
          <path id="Path_6" data-name="Path 6" d="M1591.717,7695.344l-7.094.785-2.574-7.252Z" transform="translate(-1582.049 -7688.877)" fill="#639326"/>
        </g>
        <path id="Path_7" data-name="Path 7" d="M1490.416,7784.627q-1.9,4.39-3.794,8.781c-1.786,4.139-3.579,8.274-5.341,12.423a1.084,1.084,0,0,1-1.183.8c-3.086-.043-6.174-.02-9.261-.02h-.892v-31.154h10.938v21.9l.2.062c.133-.284.274-.563.4-.851q4.41-10.215,8.806-20.437a1.03,1.03,0,0,1,1.12-.755c3.115.035,6.231.017,9.346.017h.883v31.157h-10.972v-21.9Z" transform="translate(-1403.453 -7765.181)" fill="#fff"/>
        <path id="Path_8" data-name="Path 8" d="M2078.6,7775.357v31.149h-10.95v-21.943l-.191-.043c-.115.24-.238.476-.343.72q-4.431,10.253-8.844,20.514a1.14,1.14,0,0,1-1.248.843c-3.34-.042-6.681-.019-10.093-.019V7775.41h10.9v22.037l.165.06c.113-.228.237-.45.337-.684q4.442-10.295,8.867-20.6a1.2,1.2,0,0,1,1.3-.889c3.058.049,6.116.021,9.175.021Z" transform="translate(-1912.432 -7765.146)" fill="#fff"/>
        <path id="Path_9" data-name="Path 9" d="M905.818,7807.122v-31.169H930.6l.849,3.606H916.846v2.748c1.8.22,3.592.33,5.34.678,3.895.776,7.425,2.329,9.991,5.508a11.378,11.378,0,0,1-6.513,18.3,15.443,15.443,0,0,1-3.056.319c-5.257.031-10.515.014-15.773.014Zm11.012-3.752c2.769.374,4.625-.905,4.838-3.516.2-2.44.178-4.9.15-7.354a8.328,8.328,0,0,0-1.328-4.627,3.8,3.8,0,0,0-3.659-1.794Z" transform="translate(-905.818 -7765.689)" fill="#fff"/>
        <path id="Path_10" data-name="Path 10" d="M2407.1,7806.663c-3.972,0-7.774.014-11.574-.029a1.21,1.21,0,0,1-.815-.646c-1.387-2.911-2.731-5.842-4.088-8.767a.87.87,0,0,0-.446-.471v9.878h-10.979v-31.11h10.948v9.6c1.471-1.358,2.741-2.524,4-3.7,1.969-1.827,3.921-3.672,5.914-5.472a2.017,2.017,0,0,1,1.186-.482c1.539-.056,3.081-.022,4.89-.022l-9.186,8.838Z" transform="translate(-2205.533 -7765.23)" fill="#fff"/>
        <path id="Path_11" data-name="Path 11" d="M1165.308,7806.232c1.211-2.621,2.347-5.076,3.481-7.533q5.31-11.5,10.6-23.01a1.112,1.112,0,0,1,1.079-.7c1.559-.2,2.359.347,3.071,1.842,4.579,9.609,9.3,19.151,13.97,28.715.086.177.163.359.281.621-.257.027-.464.067-.67.067-3.659,0-7.318-.009-10.977.016a.954.954,0,0,1-1.029-.662c-.51-1.178-1.042-2.349-1.633-3.487a1.131,1.131,0,0,0-.82-.527q-5.359-.053-10.719,0a1.209,1.209,0,0,0-.846.609c-.568,1.15-1.033,2.351-1.581,3.512a.96.96,0,0,1-.632.514C1167.752,7806.26,1166.612,7806.232,1165.308,7806.232Zm16.411-7.738-4.547-9.561-4.4,9.561Z" transform="translate(-1134.723 -7764.8)" fill="#fff"/>
        <path id="Path_12" data-name="Path 12" d="M1799.7,7807.213h-11.059v-27.492h-8.117v-3.615h27.43v3.567H1799.7Z" transform="translate(-1677.428 -7765.825)" fill="#fff"/>
      </g>
      <g id="Group_4" data-name="Group 4" transform="translate(0.77 46.461)">
        <path id="Path_13" data-name="Path 13" d="M912.353,8105.2h1.4v5.1h2.426v-5.1h1.4v5.1h.845l-.115,2.96h-1.27v-1.845h-4.679Z" transform="translate(-912.353 -8102.59)" fill="#555"/>
        <path id="Path_14" data-name="Path 14" d="M973.076,8110.674a2.89,2.89,0,0,1-2.153-.836,3.035,3.035,0,0,1-.825-2.228v-.172a3.732,3.732,0,0,1,.359-1.664,2.733,2.733,0,0,1,1.009-1.141,2.668,2.668,0,0,1,1.449-.409,2.441,2.441,0,0,1,1.963.811,3.426,3.426,0,0,1,.693,2.293v.563h-4.064a1.869,1.869,0,0,0,.514,1.219,1.545,1.545,0,0,0,1.135.448,1.891,1.891,0,0,0,1.564-.776l.753.719a2.51,2.51,0,0,1-1,.865A3.123,3.123,0,0,1,973.076,8110.674Zm-.167-5.329a1.176,1.176,0,0,0-.928.4,2.084,2.084,0,0,0-.451,1.121h2.662v-.1a1.7,1.7,0,0,0-.374-1.061A1.168,1.168,0,0,0,972.909,8105.345Z" transform="translate(-963.292 -8101.729)" fill="#555"/>
        <path id="Path_15" data-name="Path 15" d="M1031.4,8111.42H1030v-2.512h-2.42v2.512h-1.4v-6.22h1.4v2.592H1030V8105.2h1.4Z" transform="translate(-1012.768 -8102.59)" fill="#555"/>
        <path id="Path_16" data-name="Path 16" d="M1084.071,8106.31h-2.018v5.11h-1.4v-5.11h-1.995V8105.2h5.409Z" transform="translate(-1059.06 -8102.59)" fill="#555"/>
        <path id="Path_17" data-name="Path 17" d="M1137.857,8107.513a3.7,3.7,0,0,1-.655,2.3,2.276,2.276,0,0,1-3.4.187v2.949h-1.4v-8.611h1.287l.057.632a2.051,2.051,0,0,1,1.673-.748,2.12,2.12,0,0,1,1.785.848,3.8,3.8,0,0,1,.647,2.354Zm-1.391-.121a2.6,2.6,0,0,0-.371-1.478,1.205,1.205,0,0,0-1.061-.546,1.285,1.285,0,0,0-1.23.708v2.759a1.3,1.3,0,0,0,1.242.724,1.2,1.2,0,0,0,1.043-.537A2.858,2.858,0,0,0,1136.466,8107.392Z" transform="translate(-1106.471 -8101.729)" fill="#555"/>
        <path id="Path_18" data-name="Path 18" d="M1217.83,8105.2h1.391v6.22h-1.391v-4.15l-2.437,4.15H1214v-6.22h1.391v4.15Z" transform="translate(-1178.448 -8102.59)" fill="#555"/>
        <path id="Path_19" data-name="Path 19" d="M1276.57,8111.42h-1.4v-2.512h-2.42v2.512h-1.4v-6.22h1.4v2.592h2.42V8105.2h1.4Z" transform="translate(-1229.042 -8102.59)" fill="#555"/>
        <path id="Path_20" data-name="Path 20" d="M1326.223,8088.864a4.279,4.279,0,0,1,.6-2.417,2.024,2.024,0,0,1,2.469-.733v-2.656h1.391v2.679a1.9,1.9,0,0,1,.862-.184,1.921,1.921,0,0,1,1.676.888,4.491,4.491,0,0,1,.606,2.544,3.6,3.6,0,0,1-.609,2.208,1.968,1.968,0,0,1-1.661.81,2.163,2.163,0,0,1-.874-.172v2.449h-1.391v-2.426a2.038,2.038,0,0,1-.8.149,1.958,1.958,0,0,1-1.607-.744,3.4,3.4,0,0,1-.653-2.049Zm1.391.121a2.645,2.645,0,0,0,.31,1.417,1.021,1.021,0,0,0,.92.486,1.544,1.544,0,0,0,.448-.058v-4.1a1.536,1.536,0,0,0-.437-.058,1.011,1.011,0,0,0-.92.555A3.639,3.639,0,0,0,1327.614,8088.985Zm4.817-.121a3.242,3.242,0,0,0-.333-1.619,1.04,1.04,0,0,0-.943-.572,1.414,1.414,0,0,0-.471.075v4.082a1.688,1.688,0,0,0,.483.058Q1332.431,8090.888,1332.431,8088.864Z" transform="translate(-1277.442 -8083.058)" fill="#555"/>
        <path id="Path_21" data-name="Path 21" d="M1398.7,8107.392a3.668,3.668,0,0,1,.362-1.647,2.64,2.64,0,0,1,1.017-1.126,2.865,2.865,0,0,1,1.506-.394,2.717,2.717,0,0,1,2.044.811,3.186,3.186,0,0,1,.848,2.149l.006.328a3.7,3.7,0,0,1-.354,1.644,2.613,2.613,0,0,1-1.012,1.121,2.886,2.886,0,0,1-1.521.4,2.7,2.7,0,0,1-2.107-.876,3.359,3.359,0,0,1-.79-2.337Zm1.4.121a2.507,2.507,0,0,0,.4,1.5,1.29,1.29,0,0,0,1.1.543,1.276,1.276,0,0,0,1.1-.552,2.768,2.768,0,0,0,.394-1.615,2.473,2.473,0,0,0-.405-1.495,1.366,1.366,0,0,0-2.187-.009A2.717,2.717,0,0,0,1400.094,8107.513Z" transform="translate(-1341.374 -8101.729)" fill="#555"/>
        <path id="Path_22" data-name="Path 22" d="M1463.208,8107.513a3.7,3.7,0,0,1-.655,2.3,2.276,2.276,0,0,1-3.4.187v2.949h-1.4v-8.611h1.288l.057.632a2.051,2.051,0,0,1,1.673-.748,2.12,2.12,0,0,1,1.785.848,3.8,3.8,0,0,1,.647,2.354Zm-1.391-.121a2.6,2.6,0,0,0-.371-1.478,1.205,1.205,0,0,0-1.061-.546,1.285,1.285,0,0,0-1.23.708v2.759a1.3,1.3,0,0,0,1.242.724,1.205,1.205,0,0,0,1.043-.537A2.859,2.859,0,0,0,1461.816,8107.392Z" transform="translate(-1393.473 -8101.729)" fill="#555"/>
        <path id="Path_23" data-name="Path 23" d="M1518.5,8109.7l1.839-4.5h1.748v6.22h-1.4V8107.3l-1.713,4.116h-.949l-1.719-4.139v4.139h-1.4v-6.22h1.759Z" transform="translate(-1443.896 -8102.59)" fill="#555"/>
        <path id="Path_24" data-name="Path 24" d="M1591.307,8110.559a2.148,2.148,0,0,1-.161-.581,2.349,2.349,0,0,1-3.161.161,1.711,1.711,0,0,1-.592-1.322,1.765,1.765,0,0,1,.739-1.526,3.576,3.576,0,0,1,2.113-.532h.856v-.408a1.09,1.09,0,0,0-.27-.773,1.072,1.072,0,0,0-.822-.291,1.233,1.233,0,0,0-.782.239.739.739,0,0,0-.3.606h-1.4a1.55,1.55,0,0,1,.339-.957,2.257,2.257,0,0,1,.923-.7,3.234,3.234,0,0,1,1.3-.253,2.609,2.609,0,0,1,1.742.549,1.958,1.958,0,0,1,.667,1.543v2.806a3.175,3.175,0,0,0,.236,1.339v.1Zm-1.535-1.006a1.587,1.587,0,0,0,.779-.2,1.344,1.344,0,0,0,.549-.541v-1.172h-.753a2.058,2.058,0,0,0-1.167.27.876.876,0,0,0-.391.765.817.817,0,0,0,.267.641A1.037,1.037,0,0,0,1589.772,8109.553Z" transform="translate(-1507.828 -8101.729)" fill="#555"/>
        <path id="Path_25" data-name="Path 25" d="M1643.576,8105.2h1.4v5.1h2.426v-5.1h1.4v5.1h.845l-.115,2.96h-1.27v-1.845h-4.679Z" transform="translate(-1557.39 -8102.59)" fill="#555"/>
        <path id="Path_26" data-name="Path 26" d="M1707.636,8105.2h1.391v6.22h-1.391v-4.15l-2.437,4.15h-1.391v-6.22h1.391v4.15Z" transform="translate(-1610.522 -8102.59)" fill="#555"/>
        <path id="Path_27" data-name="Path 27" d="M1758.48,8107.392a3.67,3.67,0,0,1,.362-1.647,2.641,2.641,0,0,1,1.017-1.126,2.865,2.865,0,0,1,1.506-.394,2.717,2.717,0,0,1,2.044.811,3.187,3.187,0,0,1,.848,2.149l.006.328a3.7,3.7,0,0,1-.354,1.644,2.614,2.614,0,0,1-1.012,1.121,2.886,2.886,0,0,1-1.521.4,2.7,2.7,0,0,1-2.107-.876,3.359,3.359,0,0,1-.79-2.337Zm1.4.121a2.506,2.506,0,0,0,.4,1.5,1.29,1.29,0,0,0,1.1.543,1.276,1.276,0,0,0,1.1-.552,2.768,2.768,0,0,0,.394-1.615,2.474,2.474,0,0,0-.405-1.495,1.366,1.366,0,0,0-2.187-.009A2.716,2.716,0,0,0,1759.877,8107.513Z" transform="translate(-1658.75 -8101.729)" fill="#555"/>
        <path id="Path_28" data-name="Path 28" d="M1823.243,8111.42h-1.4v-2.512h-2.42v2.512h-1.4v-6.22h1.4v2.592h2.42V8105.2h1.4Z" transform="translate(-1711.281 -8102.59)" fill="#555"/>
        <path id="Path_29" data-name="Path 29" d="M1880.549,8111.42h-1.4v-2.512h-2.42v2.512h-1.4v-6.22h1.4v2.592h2.42V8105.2h1.4Z" transform="translate(-1761.832 -8102.59)" fill="#555"/>
        <path id="Path_30" data-name="Path 30" d="M1934.477,8107.178h1.368a3.145,3.145,0,0,1,1.334.264,1.955,1.955,0,0,1,.865.742,2.06,2.06,0,0,1,.3,1.109,1.928,1.928,0,0,1-.678,1.541,2.706,2.706,0,0,1-1.805.586h-2.776v-6.22h1.4Zm0,1.121v2.006h1.362a1.2,1.2,0,0,0,.808-.255.911.911,0,0,0,.3-.728.973.973,0,0,0-.29-.745,1.119,1.119,0,0,0-.785-.278Zm6.294,3.121h-1.4v-6.22h1.4Z" transform="translate(-1812.771 -8102.59)" fill="#555"/>
        <path id="Path_31" data-name="Path 31" d="M2010.714,8107.247l1.184-2.046h1.552l-1.9,3.063,1.966,3.156h-1.54l-1.242-2.127-1.236,2.127h-1.552l1.966-3.156-1.9-3.063h1.541Z" transform="translate(-1878.81 -8102.59)" fill="#555"/>
        <path id="Path_32" data-name="Path 32" d="M2088.654,8106.31h-2.018v5.11h-1.4v-5.11h-1.995V8105.2h5.409Z" transform="translate(-1945.237 -8102.59)" fill="#555"/>
        <path id="Path_33" data-name="Path 33" d="M2134.848,8110.674a2.89,2.89,0,0,1-2.153-.836,3.035,3.035,0,0,1-.825-2.228v-.172a3.735,3.735,0,0,1,.359-1.664,2.733,2.733,0,0,1,1.009-1.141,2.668,2.668,0,0,1,1.449-.409,2.441,2.441,0,0,1,1.963.811,3.426,3.426,0,0,1,.693,2.293v.563h-4.064a1.868,1.868,0,0,0,.514,1.219,1.545,1.545,0,0,0,1.135.448,1.891,1.891,0,0,0,1.563-.776l.753.719a2.509,2.509,0,0,1-1,.865A3.121,3.121,0,0,1,2134.848,8110.674Zm-.167-5.329a1.176,1.176,0,0,0-.928.4,2.087,2.087,0,0,0-.451,1.121h2.662v-.1a1.7,1.7,0,0,0-.374-1.061A1.168,1.168,0,0,0,2134.681,8105.345Z" transform="translate(-1988.13 -8101.729)" fill="#555"/>
        <path id="Path_34" data-name="Path 34" d="M2185.7,8107.247l1.184-2.046h1.552l-1.9,3.063,1.966,3.156h-1.541l-1.241-2.127-1.236,2.127h-1.552l1.966-3.156-1.9-3.063h1.54Z" transform="translate(-2033.176 -8102.59)" fill="#555"/>
        <path id="Path_35" data-name="Path 35" d="M2243.4,8111.42h-1.4v-2.512h-2.42v2.512h-1.4v-6.22h1.4v2.592h2.42V8105.2h1.4Z" transform="translate(-2081.92 -8102.59)" fill="#555"/>
        <path id="Path_36" data-name="Path 36" d="M2292.814,8107.392a3.67,3.67,0,0,1,.362-1.647,2.643,2.643,0,0,1,1.018-1.126,2.866,2.866,0,0,1,1.506-.394,2.716,2.716,0,0,1,2.043.811,3.188,3.188,0,0,1,.848,2.149l.006.328a3.7,3.7,0,0,1-.354,1.644,2.614,2.614,0,0,1-1.012,1.121,2.885,2.885,0,0,1-1.52.4,2.7,2.7,0,0,1-2.107-.876,3.36,3.36,0,0,1-.79-2.337Zm1.4.121a2.507,2.507,0,0,0,.4,1.5,1.29,1.29,0,0,0,1.1.543,1.276,1.276,0,0,0,1.1-.552,2.769,2.769,0,0,0,.394-1.615,2.473,2.473,0,0,0-.405-1.495,1.366,1.366,0,0,0-2.187-.009A2.717,2.717,0,0,0,2294.211,8107.513Z" transform="translate(-2130.104 -8101.729)" fill="#555"/>
        <path id="Path_37" data-name="Path 37" d="M2352.469,8105.2v6.22h-1.4v-5.093h-1.759l-.115,2.167a4.484,4.484,0,0,1-.6,2.245,1.731,1.731,0,0,1-1.5.681h-.431l-.006-1.161.287-.029a.832.832,0,0,0,.67-.56,5.981,5.981,0,0,0,.267-1.814l.115-2.656Z" transform="translate(-2177.601 -8102.59)" fill="#555"/>
        <path id="Path_38" data-name="Path 38" d="M2406.353,8107.392a3.67,3.67,0,0,1,.362-1.647,2.644,2.644,0,0,1,1.018-1.126,2.865,2.865,0,0,1,1.506-.394,2.717,2.717,0,0,1,2.044.811,3.189,3.189,0,0,1,.848,2.149l.006.328a3.7,3.7,0,0,1-.354,1.644,2.614,2.614,0,0,1-1.012,1.121,2.885,2.885,0,0,1-1.52.4,2.7,2.7,0,0,1-2.107-.876,3.36,3.36,0,0,1-.79-2.337Zm1.4.121a2.507,2.507,0,0,0,.4,1.5,1.29,1.29,0,0,0,1.1.543,1.276,1.276,0,0,0,1.1-.552,2.769,2.769,0,0,0,.394-1.615,2.473,2.473,0,0,0-.405-1.495,1.366,1.366,0,0,0-2.187-.009A2.717,2.717,0,0,0,2407.75,8107.513Z" transform="translate(-2230.261 -8101.729)" fill="#555"/>
        <path id="Path_39" data-name="Path 39" d="M2469.946,8106.327h-2.7v5.093h-1.391v-6.22h4.093Z" transform="translate(-2282.748 -8102.59)" fill="#555"/>
        <path id="Path_40" data-name="Path 40" d="M2511.576,8105.2h1.391v6.22h-1.391v-4.15l-2.437,4.15h-1.391v-6.22h1.391v4.15Z" transform="translate(-2319.705 -8102.59)" fill="#555"/>
        <path id="Path_41" data-name="Path 41" d="M2568.93,8087.346h1.391v6.22h-1.391v-4.15l-2.437,4.15H2565.1v-6.22h1.391v4.15Zm.655-2.385a1.491,1.491,0,0,1-.506,1.172,2.258,2.258,0,0,1-2.7,0,1.491,1.491,0,0,1-.506-1.172h1.046a.784.784,0,0,0,.215.589.818.818,0,0,0,.6.209.807.807,0,0,0,.592-.209.791.791,0,0,0,.213-.589Z" transform="translate(-2370.299 -8084.737)" fill="#555"/>
      </g>
    </g>
  </g>
</svg>
